<svg width="157" height="161" viewBox="0 0 157 161" fill="none" xmlns="http://www.w3.org/2000/svg">
<path d="M69.5935 154.44L62.515 153.535L63.2553 147.742L64.89 147.951L64.7982 150.311C65.224 149.419 65.8375 148.825 66.6388 148.53C67.44 148.234 68.5178 148.173 69.8721 148.346L71.1577 148.51C73.1574 148.766 74.5423 149.373 75.3123 150.332C76.081 151.301 76.3274 152.865 76.0516 155.023C75.7758 157.182 75.1447 158.628 74.1583 159.362C73.1706 160.107 71.6769 160.352 69.6772 160.096L67.3283 159.796C65.4766 159.559 64.1398 159.039 63.3178 158.235C62.4957 157.431 62.18 156.283 62.3707 154.791L64.5609 155.071C64.4543 155.821 64.6465 156.421 65.1374 156.87C65.6164 157.33 66.4325 157.633 67.5858 157.78L69.9347 158.08C71.2467 158.248 72.1812 158.088 72.7382 157.6C73.2939 157.122 73.663 156.17 73.8455 154.741C74.0281 153.313 73.9111 152.292 73.4947 151.68C73.077 151.078 72.2121 150.693 70.9001 150.526L68.5512 150.226C67.4826 150.089 66.6706 150.174 66.1155 150.479C65.5589 150.795 65.1696 151.401 64.9475 152.298L69.7881 152.916L69.5935 154.44Z" fill="url(#paint0_radial_23042_202)"/>
<path d="M44.6135 146.31L45.0772 145.22L53.2771 148.711C53.5692 147.861 53.59 147.186 53.3395 146.686C53.0791 146.181 52.4926 145.734 51.5798 145.345L50.3727 144.831C48.7631 144.146 47.7306 144.338 47.2752 145.408L45.3467 144.587C45.8355 143.439 46.5468 142.762 47.4805 142.557C48.41 142.361 49.606 142.575 51.0683 143.197L52.4963 143.805C54.0568 144.469 55.0398 145.265 55.4455 146.191C55.8371 147.123 55.6799 148.418 54.9738 150.077C54.2677 151.735 53.4382 152.744 52.4853 153.104C51.5323 153.463 50.2805 153.313 48.7298 152.653L47.3019 152.045C45.8199 151.414 44.8488 150.659 44.3887 149.779C43.9286 148.899 44.0035 147.743 44.6135 146.31ZM52.8134 149.8L46.542 147.131C46.191 147.955 46.1506 148.622 46.4208 149.131C46.677 149.646 47.2663 150.1 48.1889 150.492L49.2047 150.925C50.1272 151.317 50.8579 151.426 51.3967 151.249C51.9313 151.083 52.4036 150.6 52.8134 149.8Z" fill="url(#paint1_radial_23042_202)"/>
<path d="M32.9304 136.424L31.2731 135.167C31.9756 134.241 32.7986 133.747 33.7418 133.686C34.6766 133.618 35.6497 133.968 36.6611 134.735L36.8268 134.861C37.8382 135.628 38.4386 136.451 38.628 137.331C38.8175 138.211 38.5029 139.191 37.6843 140.27L35.277 143.445L36.2968 144.218L35.33 145.493L34.3101 144.72L33.0629 146.364L31.3674 145.078L32.6146 143.434L27.9741 139.914L28.9409 138.64L33.5814 142.159L35.9888 138.984C36.8009 137.914 36.6885 136.985 35.6516 136.199L35.5624 136.131C35.0865 135.77 34.619 135.61 34.1602 135.65C33.7013 135.69 33.2914 135.948 32.9304 136.424Z" fill="url(#paint2_radial_23042_202)"/>
<path d="M13.585 118.906L12.3057 116.652C11.3318 114.936 10.8464 113.562 10.8494 112.53C10.8432 111.503 11.3411 110.705 12.343 110.137C14.384 108.979 16.3389 110.046 18.2078 113.34L19.2186 115.121C20.1925 116.837 20.6334 118.273 20.5413 119.429C20.4347 120.581 19.7876 121.494 18.6002 122.168L17.5025 120.234C18.7271 119.539 18.7998 118.241 17.7205 116.339L16.2833 113.806C15.7832 112.925 15.3139 112.357 14.8754 112.103C14.4224 111.845 13.9686 111.845 13.514 112.103C13.0873 112.345 12.8818 112.707 12.8975 113.189C12.908 113.661 13.1528 114.319 13.6319 115.164L15.0138 117.599C16.0193 119.371 16.512 120.747 16.4919 121.727C16.4718 122.707 15.9515 123.487 14.931 124.066C14.3558 124.393 13.8003 124.548 13.2645 124.534C12.7195 124.524 12.2046 124.362 11.72 124.049C11.2301 123.726 10.771 123.306 10.3425 122.788C9.9088 122.262 9.47874 121.623 9.05232 120.871L8.19947 119.369C7.22554 117.652 6.7919 116.218 6.89854 115.066C6.99063 113.91 7.63041 112.995 8.81787 112.321L9.91551 114.255C9.34034 114.582 9.01938 115.065 8.95264 115.703C8.88591 116.342 9.11576 117.125 9.64221 118.053L10.9215 120.307C11.9165 122.061 12.8778 122.674 13.8055 122.148C14.2415 121.9 14.4517 121.536 14.4359 121.054C14.4056 120.569 14.122 119.853 13.585 118.906Z" fill="url(#paint3_radial_23042_202)"/>
<path d="M7.8076 96.1834L7.28235 94.1708C8.40733 93.8772 9.35937 93.998 10.1385 94.5333C10.9148 95.0583 11.4633 95.9348 11.7839 97.163L11.8364 97.3643C12.1569 98.5925 12.1196 99.6109 11.7243 100.42C11.329 101.228 10.476 101.804 9.16527 102.146L5.31039 103.152L5.63362 104.39L4.08548 104.794L3.76224 103.556L1.76514 104.077L1.22776 102.018L3.22487 101.497L1.75415 95.8616L3.3023 95.4576L4.77301 101.093L8.62789 100.087C9.92833 99.7474 10.4142 98.9481 10.0856 97.6889L10.0573 97.5806C9.90649 97.0026 9.63832 96.5875 9.25282 96.3354C8.86731 96.0832 8.38557 96.0326 7.8076 96.1834Z" fill="url(#paint4_radial_23042_202)"/>
<path d="M0.0153002 81.8971L0.000467831 80.2332C-0.0139843 78.6119 0.306401 77.457 0.961622 76.7684C1.61675 76.0692 2.78161 75.7122 4.45621 75.6973L9.33602 75.6538L9.35499 77.7817L7.64306 77.7969C8.94947 78.3613 9.61124 79.6035 9.62835 81.5234L9.63292 82.0354C9.65916 84.9792 8.63232 86.4605 6.5524 86.479C5.61377 86.4874 4.98147 86.157 4.65549 85.4879C4.32951 84.8187 4.16001 83.7535 4.14699 82.2923L4.10734 77.8445C3.21176 77.8951 2.58963 78.1087 2.24098 78.4851C1.89222 78.8509 1.72203 79.5031 1.7304 80.4417L1.74352 81.9137C1.75721 83.4496 2.28137 84.213 3.31599 84.2038L3.33453 86.2837C2.21458 86.2937 1.38476 85.9437 0.845076 85.2338C0.305298 84.5133 0.0287064 83.401 0.0153002 81.8971ZM8.01712 82.0658L8.00628 80.8498C7.99735 79.8472 7.7827 79.1024 7.36234 78.6155C6.93132 78.1286 6.21964 77.8683 5.22729 77.8345L5.26509 82.0743C5.2726 82.9169 5.36859 83.5134 5.55305 83.8638C5.72685 84.2143 6.05374 84.3874 6.53372 84.3831C7.53635 84.3742 8.03081 83.6017 8.01712 82.0658Z" fill="url(#paint5_radial_23042_202)"/>
<path d="M2.48212 60.7558L2.57621 60.367C2.84219 59.2681 3.3756 58.4698 4.17645 57.9723C4.97731 57.4747 6.07753 57.3953 7.47712 57.734L6.97277 59.8179C5.46951 59.454 4.54349 59.9926 4.19471 61.4337L4.11567 61.7603C3.89486 62.6726 3.95859 63.4069 4.30686 63.9631C4.64726 64.5064 5.33584 64.9035 6.37257 65.1544L10.7269 66.2083L10.2225 68.2921L1.34288 66.143L1.79453 64.2769L3.73841 64.7473C2.48686 63.7969 2.0681 62.4664 2.48212 60.7558Z" fill="url(#paint6_radial_23042_202)"/>
<path d="M14.8538 45.2788L15.7946 43.4237C16.8316 43.9496 17.4643 44.6711 17.6928 45.5883C17.9262 46.496 17.7558 47.5159 17.1816 48.648L17.0876 48.8335C16.5134 49.9655 15.8104 50.7033 14.9784 51.0468C14.1464 51.3903 13.1263 51.2557 11.9181 50.643L8.36492 48.841L7.78597 49.9826L6.35899 49.2589L6.93794 48.1173L5.09713 47.1838L6.05963 45.2859L7.90044 46.2194L10.5347 41.0252L11.9616 41.7489L9.32742 46.9431L12.8806 48.7451C14.0793 49.353 14.9729 49.0766 15.5615 47.916L15.6122 47.8161C15.8823 47.2834 15.9567 46.7949 15.8352 46.3505C15.7137 45.9062 15.3866 45.5489 14.8538 45.2788Z" fill="url(#paint7_radial_23042_202)"/>
<path d="M25.8552 27.3831L26.7487 28.16L20.9009 34.8852C21.6191 35.4248 22.2549 35.6526 22.8086 35.5686C23.3692 35.4765 23.975 35.0562 24.6259 34.3076L25.4868 33.3176C26.6347 31.9975 26.7699 30.956 25.8925 30.1931L27.2678 28.6114C28.2096 29.4303 28.6343 30.3155 28.5419 31.2671C28.4415 32.2116 27.8699 33.2836 26.827 34.4829L25.8086 35.6541C24.6958 36.9339 23.6363 37.6241 22.6301 37.7245C21.623 37.8099 20.4392 37.2612 19.0789 36.0784C17.7185 34.8955 17.0142 33.7954 16.9659 32.7781C16.9176 31.7608 17.4464 30.6162 18.5522 29.3444L19.5706 28.1733C20.6275 26.9578 21.6453 26.2668 22.6241 26.1002C23.603 25.9336 24.68 26.3612 25.8552 27.3831ZM20.0075 34.1083L24.4799 28.9648C23.8037 28.3769 23.1818 28.1329 22.6142 28.233C22.0455 28.3181 21.4322 28.7389 20.7743 29.4956L20.0499 30.3287C19.392 31.0853 19.0639 31.7471 19.0657 32.314C19.0594 32.874 19.3733 33.472 20.0075 34.1083Z" fill="url(#paint8_radial_23042_202)"/>
<path d="M37.7126 14.9833L35.2583 11.3507L37.0348 10.1504L43.753 20.0935L41.9764 21.2939L41.1344 20.0476C41.208 21.414 40.4891 22.6078 38.9777 23.6289L38.7391 23.7902C37.5017 24.6262 36.3869 24.9482 35.3946 24.7561C34.4112 24.5581 33.4208 23.7211 32.4236 22.2451C31.4263 20.7691 31.0193 19.5379 31.2025 18.5516C31.3946 17.5593 32.1093 16.6452 33.3466 15.8091L33.5853 15.6479C35.0966 14.6267 36.4724 14.4052 37.7126 14.9833ZM38.0759 22.0369L38.7122 21.607C39.5342 21.0516 40.0068 20.4555 40.1301 19.8187C40.2562 19.167 40.0207 18.3993 39.4235 17.5155C38.8264 16.6316 38.2049 16.1311 37.5593 16.0138C36.9165 15.8817 36.1841 16.0933 35.3621 16.6487L34.7258 17.0786C33.9038 17.634 33.4488 18.2182 33.3609 18.8311C33.2759 19.4292 33.5379 20.1791 34.147 21.0806C34.7562 21.9821 35.357 22.5094 35.9497 22.6625C36.5452 22.8008 37.2539 22.5923 38.0759 22.0369Z" fill="url(#paint9_radial_23042_202)"/>
<path d="M60.4166 6.86199L61.0861 6.70388C61.6675 6.56661 62.1109 6.58794 62.4165 6.76787C62.722 6.94781 62.9483 7.34921 63.0954 7.97208C63.2424 8.59495 63.2196 9.05519 63.0268 9.35279C62.8341 9.65039 62.447 9.86782 61.8657 10.0051L61.1961 10.1632C60.6147 10.3005 60.1713 10.2792 59.8658 10.0992C59.5602 9.91928 59.3339 9.51788 59.1868 8.89501C59.0398 8.27214 59.0626 7.8119 59.2554 7.5143C59.4482 7.2167 59.8352 6.99927 60.4166 6.86199Z" fill="url(#paint10_radial_23042_202)"/>
<path d="M88.6871 5.78171L95.7483 6.81229L94.9049 12.5911L93.2741 12.3531L93.408 9.99568C92.9663 10.8798 92.3423 11.4625 91.5359 11.7436C90.7295 12.0248 89.6508 12.0668 88.2998 11.8696L87.0174 11.6824C85.0225 11.3913 83.6487 10.7596 82.8959 9.78733C82.1446 8.80453 81.9261 7.23653 82.2404 5.08334C82.5546 2.93016 83.2114 1.4953 84.2107 0.778772C85.2115 0.05169 86.7094 -0.166275 88.7042 0.124877L91.0474 0.466866C92.8945 0.736451 94.2218 1.28052 95.0294 2.09906C95.837 2.91761 96.1322 4.071 95.915 5.55923L93.7301 5.24035C93.8501 4.4925 93.6686 3.8893 93.1858 3.43076C92.715 2.96321 91.9044 2.64548 90.7539 2.47756L88.4108 2.13558C87.102 1.94455 86.1647 2.08804 85.5991 2.56603C85.035 3.03346 84.649 3.97963 84.441 5.40454C84.2331 6.82944 84.3318 7.85175 84.7372 8.47146C85.1442 9.08062 86.0021 9.48071 87.3109 9.67173L89.654 10.0137C90.7201 10.1693 91.5334 10.0994 92.0939 9.80389C92.656 9.49786 93.0561 8.89869 93.2941 8.00638L88.4652 7.3016L88.6871 5.78171Z" fill="url(#paint11_radial_23042_202)"/>
<path d="M113.518 14.3558L113.035 15.4368L104.899 11.8005C104.592 12.6446 104.559 13.3193 104.8 13.8245C105.052 14.334 105.63 14.7912 106.536 15.1959L107.734 15.7313C109.331 16.445 110.366 16.2712 110.841 15.2097L112.754 16.0649C112.245 17.2043 111.522 17.8683 110.585 18.057C109.652 18.236 108.46 18.0012 107.009 17.3527L105.592 16.7194C104.044 16.0274 103.075 15.2148 102.686 14.2815C102.311 13.3428 102.491 12.0506 103.227 10.4048C103.962 8.759 104.81 7.76489 105.769 7.42247C106.728 7.08004 107.977 7.25266 109.516 7.94032L110.932 8.57357C112.403 9.23077 113.36 10.0033 113.805 10.8913C114.249 11.7792 114.154 12.934 113.518 14.3558ZM105.382 10.7195L111.605 13.5006C111.97 12.6826 112.022 12.0166 111.761 11.5027C111.514 10.9835 110.933 10.5193 110.018 10.1101L109.01 9.65968C108.095 9.25057 107.366 9.12939 106.824 9.29614C106.287 9.45315 105.806 9.92761 105.382 10.7195Z" fill="url(#paint12_radial_23042_202)"/>
<path d="M125.023 24.4481L126.658 25.7343C125.939 26.648 125.107 27.127 124.163 27.1713C123.227 27.2222 122.261 26.8551 121.263 26.0702L121.1 25.9416C120.102 25.1567 119.516 24.3226 119.343 23.4394C119.169 22.5562 119.501 21.5823 120.339 20.5177L122.802 17.3867L121.796 16.5952L122.786 15.3378L123.792 16.1293L125.068 14.5072L126.74 15.8231L125.464 17.4452L130.041 21.0466L129.052 22.304L124.475 18.7026L122.011 21.8336C121.18 22.8898 121.276 23.8203 122.298 24.625L122.386 24.6943C122.856 25.0636 123.32 25.2323 123.78 25.2003C124.239 25.1682 124.654 24.9175 125.023 24.4481Z" fill="url(#paint13_radial_23042_202)"/>
<path d="M144.053 42.3077L145.292 44.5845C146.235 46.3178 146.696 47.7004 146.675 48.7321C146.663 49.7588 146.151 50.5474 145.139 51.098C143.078 52.2196 141.142 51.1174 139.332 47.7912L138.353 45.9923C137.41 44.259 136.995 42.8152 137.107 41.6609C137.235 40.511 137.898 39.6097 139.097 38.9571L140.16 40.9106C138.923 41.5836 138.828 42.8805 139.873 44.8012L141.265 47.359C141.749 48.2491 142.208 48.8251 142.642 49.0869C143.09 49.3529 143.544 49.361 144.003 49.1112C144.434 48.8767 144.646 48.5185 144.639 48.0367C144.637 47.5642 144.404 46.9017 143.94 46.049L142.601 43.5896C141.628 41.8 141.16 40.4154 141.197 39.4356C141.235 38.4557 141.769 37.6855 142.8 37.1246C143.38 36.8085 143.939 36.6627 144.474 36.6871C145.019 36.7063 145.531 36.8771 146.01 37.1994C146.494 37.531 146.945 37.9593 147.365 38.4841C147.789 39.0183 148.207 39.6648 148.62 40.4238L149.446 41.9416C150.389 43.6749 150.797 45.1166 150.67 46.2666C150.558 47.4208 149.902 48.3242 148.702 48.9768L147.639 47.0233C148.22 46.7072 148.55 46.2304 148.628 45.5928C148.706 44.9553 148.49 44.1681 147.98 43.2311L146.741 40.9543C145.778 39.1835 144.828 38.553 143.891 39.0629C143.45 39.3025 143.234 39.6632 143.241 40.1451C143.263 40.6312 143.533 41.3521 144.053 42.3077Z" fill="url(#paint14_radial_23042_202)"/>
<path d="M149.425 65.1303L149.914 67.152C148.784 67.4255 147.834 67.2877 147.065 66.7386C146.298 66.1999 145.765 65.3137 145.467 64.08L145.418 63.8778C145.119 62.6441 145.175 61.6265 145.584 60.825C145.994 60.0235 146.857 59.4634 148.174 59.1447L152.046 58.2075L151.745 56.9634L153.3 56.5871L153.601 57.8311L155.607 57.3456L156.107 59.4139L154.101 59.8994L155.471 65.56L153.916 65.9364L152.546 60.2758L148.674 61.213C147.368 61.5291 146.868 62.3196 147.174 63.5844L147.2 63.6933C147.341 64.2739 147.601 64.6937 147.982 64.9526C148.363 65.2116 148.844 65.2709 149.425 65.1303Z" fill="url(#paint15_radial_23042_202)"/>
<path d="M156.961 79.5532L156.946 81.2171C156.932 82.8384 156.591 83.9874 155.923 84.6641C155.256 85.3515 154.085 85.6878 152.41 85.6728L147.531 85.6293L147.549 83.5014L149.261 83.5167C147.965 82.9291 147.326 81.6754 147.343 79.7554L147.347 79.2434C147.374 76.2996 148.427 74.8369 150.507 74.8554C151.445 74.8638 152.072 75.2054 152.386 75.8802C152.7 76.5551 152.85 77.6231 152.837 79.0844L152.797 83.5322C153.694 83.4975 154.32 83.2951 154.675 82.9249C155.03 82.5654 155.212 81.9163 155.22 80.9777L155.233 79.5058C155.247 77.9698 154.737 77.1972 153.702 77.188L153.721 75.1081C154.84 75.1181 155.664 75.4828 156.191 76.2022C156.718 76.9322 156.974 78.0492 156.961 79.5532ZM148.964 79.2419L148.953 80.4578C148.944 81.4604 149.145 82.2089 149.557 82.7033C149.979 83.1977 150.686 83.4707 151.677 83.5222L151.715 79.2824C151.723 78.4398 151.637 77.8416 151.459 77.488C151.292 77.1345 150.968 76.9556 150.488 76.9514C149.485 76.9424 148.977 77.7059 148.964 79.2419Z" fill="url(#paint16_radial_23042_202)"/>
<path d="M154.118 100.647L154.017 101.034C153.731 102.128 153.184 102.917 152.374 103.4C151.565 103.883 150.463 103.943 149.07 103.579L149.611 101.505C151.108 101.895 152.043 101.373 152.418 99.9387L152.502 99.6136C152.739 98.7054 152.689 97.9701 152.351 97.4078C152.02 96.8585 151.338 96.4491 150.306 96.1798L145.972 95.0484L146.513 92.9739L155.353 95.281L154.868 97.1388L152.933 96.6337C154.167 97.6063 154.562 98.9441 154.118 100.647Z" fill="url(#paint17_radial_23042_202)"/>
<path d="M141.472 115.901L140.498 117.739C139.471 117.195 138.851 116.462 138.639 115.541C138.422 114.629 138.611 113.612 139.205 112.491L139.302 112.307C139.896 111.185 140.612 110.46 141.45 110.132C142.288 109.803 143.306 109.956 144.503 110.59L148.023 112.455L148.623 111.324L150.037 112.073L149.437 113.204L151.261 114.17L150.265 116.051L148.441 115.084L145.715 120.231L144.301 119.482L147.027 114.335L143.507 112.47C142.319 111.841 141.421 112.102 140.812 113.252L140.759 113.351C140.48 113.878 140.396 114.365 140.51 114.812C140.624 115.258 140.944 115.621 141.472 115.901Z" fill="url(#paint18_radial_23042_202)"/>
<path d="M130.153 133.598L129.274 132.805L135.241 126.185C134.532 125.633 133.901 125.394 133.345 125.468C132.783 125.55 132.17 125.959 131.506 126.696L130.628 127.671C129.456 128.97 129.303 130.009 130.166 130.788L128.763 132.344C127.836 131.509 127.427 130.616 127.536 129.667C127.654 128.724 128.244 127.662 129.308 126.482L130.347 125.329C131.483 124.069 132.555 123.398 133.562 123.315C134.571 123.248 135.745 123.818 137.084 125.025C138.423 126.232 139.107 127.344 139.137 128.362C139.168 129.38 138.619 130.515 137.49 131.767L136.451 132.92C135.373 134.116 134.343 134.789 133.361 134.938C132.379 135.087 131.31 134.64 130.153 133.598ZM136.12 126.978L131.557 132.041C132.222 132.641 132.84 132.896 133.409 132.806C133.979 132.731 134.6 132.321 135.271 131.576L136.01 130.756C136.682 130.011 137.021 129.356 137.03 128.789C137.046 128.229 136.743 127.625 136.12 126.978Z" fill="url(#paint19_radial_23042_202)"/>
<path d="M118.077 145.784L120.466 149.46L118.669 150.628L112.129 140.567L113.926 139.399L114.746 140.66C114.697 139.292 115.437 138.111 116.966 137.117L117.208 136.96C118.46 136.147 119.58 135.845 120.569 136.054C121.549 136.27 122.524 137.124 123.495 138.618C124.465 140.111 124.85 141.35 124.65 142.333C124.44 143.321 123.709 144.222 122.457 145.036L122.215 145.193C120.686 146.187 119.307 146.384 118.077 145.784ZM117.839 138.725L117.196 139.144C116.364 139.684 115.881 140.272 115.746 140.906C115.608 141.556 115.83 142.328 116.411 143.222C116.993 144.116 117.605 144.628 118.249 144.757C118.889 144.9 119.625 144.702 120.457 144.161L121.101 143.742C121.932 143.202 122.398 142.626 122.497 142.015C122.592 141.418 122.344 140.664 121.751 139.751C121.158 138.839 120.566 138.301 119.976 138.138C119.384 137.989 118.671 138.185 117.839 138.725Z" fill="url(#paint20_radial_23042_202)"/>
<path d="M95.2319 153.5L94.5596 153.646C93.9759 153.773 93.5329 153.743 93.2306 153.558C92.9284 153.373 92.7092 152.967 92.5733 152.342C92.4373 151.716 92.4684 151.257 92.6664 150.963C92.8645 150.668 93.2553 150.458 93.839 150.331L94.5113 150.185C95.095 150.058 95.538 150.087 95.8403 150.273C96.1426 150.458 96.3617 150.863 96.4976 151.489C96.6336 152.114 96.6025 152.574 96.4045 152.868C96.2064 153.162 95.8156 153.373 95.2319 153.5Z" fill="url(#paint21_radial_23042_202)"/>
<defs>
<radialGradient id="paint0_radial_23042_202" cx="0" cy="0" r="1" gradientUnits="userSpaceOnUse" gradientTransform="translate(111.689 57.1764) rotate(93.7926) scale(103.036 100.975)">
<stop offset="0.00887753" stop-color="#DEF9FA"/>
<stop offset="0.1723" stop-color="#BEF3F5"/>
<stop offset="0.4204" stop-color="#9DEDF0"/>
<stop offset="0.5512" stop-color="#7DE7EB"/>
<stop offset="0.7154" stop-color="#5CE1E6"/>
<stop offset="1" stop-color="#33BBCF"/>
</radialGradient>
<radialGradient id="paint1_radial_23042_202" cx="0" cy="0" r="1" gradientUnits="userSpaceOnUse" gradientTransform="translate(111.689 57.1764) rotate(93.7926) scale(103.036 100.975)">
<stop offset="0.00887753" stop-color="#DEF9FA"/>
<stop offset="0.1723" stop-color="#BEF3F5"/>
<stop offset="0.4204" stop-color="#9DEDF0"/>
<stop offset="0.5512" stop-color="#7DE7EB"/>
<stop offset="0.7154" stop-color="#5CE1E6"/>
<stop offset="1" stop-color="#33BBCF"/>
</radialGradient>
<radialGradient id="paint2_radial_23042_202" cx="0" cy="0" r="1" gradientUnits="userSpaceOnUse" gradientTransform="translate(111.689 57.1764) rotate(93.7926) scale(103.036 100.975)">
<stop offset="0.00887753" stop-color="#DEF9FA"/>
<stop offset="0.1723" stop-color="#BEF3F5"/>
<stop offset="0.4204" stop-color="#9DEDF0"/>
<stop offset="0.5512" stop-color="#7DE7EB"/>
<stop offset="0.7154" stop-color="#5CE1E6"/>
<stop offset="1" stop-color="#33BBCF"/>
</radialGradient>
<radialGradient id="paint3_radial_23042_202" cx="0" cy="0" r="1" gradientUnits="userSpaceOnUse" gradientTransform="translate(111.689 57.1764) rotate(93.7926) scale(103.036 100.975)">
<stop offset="0.00887753" stop-color="#DEF9FA"/>
<stop offset="0.1723" stop-color="#BEF3F5"/>
<stop offset="0.4204" stop-color="#9DEDF0"/>
<stop offset="0.5512" stop-color="#7DE7EB"/>
<stop offset="0.7154" stop-color="#5CE1E6"/>
<stop offset="1" stop-color="#33BBCF"/>
</radialGradient>
<radialGradient id="paint4_radial_23042_202" cx="0" cy="0" r="1" gradientUnits="userSpaceOnUse" gradientTransform="translate(111.689 57.1764) rotate(93.7926) scale(103.036 100.975)">
<stop offset="0.00887753" stop-color="#DEF9FA"/>
<stop offset="0.1723" stop-color="#BEF3F5"/>
<stop offset="0.4204" stop-color="#9DEDF0"/>
<stop offset="0.5512" stop-color="#7DE7EB"/>
<stop offset="0.7154" stop-color="#5CE1E6"/>
<stop offset="1" stop-color="#33BBCF"/>
</radialGradient>
<radialGradient id="paint5_radial_23042_202" cx="0" cy="0" r="1" gradientUnits="userSpaceOnUse" gradientTransform="translate(111.689 57.1764) rotate(93.7926) scale(103.036 100.975)">
<stop offset="0.00887753" stop-color="#DEF9FA"/>
<stop offset="0.1723" stop-color="#BEF3F5"/>
<stop offset="0.4204" stop-color="#9DEDF0"/>
<stop offset="0.5512" stop-color="#7DE7EB"/>
<stop offset="0.7154" stop-color="#5CE1E6"/>
<stop offset="1" stop-color="#33BBCF"/>
</radialGradient>
<radialGradient id="paint6_radial_23042_202" cx="0" cy="0" r="1" gradientUnits="userSpaceOnUse" gradientTransform="translate(111.689 57.1764) rotate(93.7926) scale(103.036 100.975)">
<stop offset="0.00887753" stop-color="#DEF9FA"/>
<stop offset="0.1723" stop-color="#BEF3F5"/>
<stop offset="0.4204" stop-color="#9DEDF0"/>
<stop offset="0.5512" stop-color="#7DE7EB"/>
<stop offset="0.7154" stop-color="#5CE1E6"/>
<stop offset="1" stop-color="#33BBCF"/>
</radialGradient>
<radialGradient id="paint7_radial_23042_202" cx="0" cy="0" r="1" gradientUnits="userSpaceOnUse" gradientTransform="translate(111.689 57.1764) rotate(93.7926) scale(103.036 100.975)">
<stop offset="0.00887753" stop-color="#DEF9FA"/>
<stop offset="0.1723" stop-color="#BEF3F5"/>
<stop offset="0.4204" stop-color="#9DEDF0"/>
<stop offset="0.5512" stop-color="#7DE7EB"/>
<stop offset="0.7154" stop-color="#5CE1E6"/>
<stop offset="1" stop-color="#33BBCF"/>
</radialGradient>
<radialGradient id="paint8_radial_23042_202" cx="0" cy="0" r="1" gradientUnits="userSpaceOnUse" gradientTransform="translate(111.689 57.1764) rotate(93.7926) scale(103.036 100.975)">
<stop offset="0.00887753" stop-color="#DEF9FA"/>
<stop offset="0.1723" stop-color="#BEF3F5"/>
<stop offset="0.4204" stop-color="#9DEDF0"/>
<stop offset="0.5512" stop-color="#7DE7EB"/>
<stop offset="0.7154" stop-color="#5CE1E6"/>
<stop offset="1" stop-color="#33BBCF"/>
</radialGradient>
<radialGradient id="paint9_radial_23042_202" cx="0" cy="0" r="1" gradientUnits="userSpaceOnUse" gradientTransform="translate(111.689 57.1764) rotate(93.7926) scale(103.036 100.975)">
<stop offset="0.00887753" stop-color="#DEF9FA"/>
<stop offset="0.1723" stop-color="#BEF3F5"/>
<stop offset="0.4204" stop-color="#9DEDF0"/>
<stop offset="0.5512" stop-color="#7DE7EB"/>
<stop offset="0.7154" stop-color="#5CE1E6"/>
<stop offset="1" stop-color="#33BBCF"/>
</radialGradient>
<radialGradient id="paint10_radial_23042_202" cx="0" cy="0" r="1" gradientUnits="userSpaceOnUse" gradientTransform="translate(111.689 57.1764) rotate(93.7926) scale(103.036 100.975)">
<stop offset="0.00887753" stop-color="#DEF9FA"/>
<stop offset="0.1723" stop-color="#BEF3F5"/>
<stop offset="0.4204" stop-color="#9DEDF0"/>
<stop offset="0.5512" stop-color="#7DE7EB"/>
<stop offset="0.7154" stop-color="#5CE1E6"/>
<stop offset="1" stop-color="#33BBCF"/>
</radialGradient>
<radialGradient id="paint11_radial_23042_202" cx="0" cy="0" r="1" gradientUnits="userSpaceOnUse" gradientTransform="translate(111.689 57.1764) rotate(93.7926) scale(103.036 100.975)">
<stop offset="0.00887753" stop-color="#DEF9FA"/>
<stop offset="0.1723" stop-color="#BEF3F5"/>
<stop offset="0.4204" stop-color="#9DEDF0"/>
<stop offset="0.5512" stop-color="#7DE7EB"/>
<stop offset="0.7154" stop-color="#5CE1E6"/>
<stop offset="1" stop-color="#33BBCF"/>
</radialGradient>
<radialGradient id="paint12_radial_23042_202" cx="0" cy="0" r="1" gradientUnits="userSpaceOnUse" gradientTransform="translate(111.689 57.1764) rotate(93.7926) scale(103.036 100.975)">
<stop offset="0.00887753" stop-color="#DEF9FA"/>
<stop offset="0.1723" stop-color="#BEF3F5"/>
<stop offset="0.4204" stop-color="#9DEDF0"/>
<stop offset="0.5512" stop-color="#7DE7EB"/>
<stop offset="0.7154" stop-color="#5CE1E6"/>
<stop offset="1" stop-color="#33BBCF"/>
</radialGradient>
<radialGradient id="paint13_radial_23042_202" cx="0" cy="0" r="1" gradientUnits="userSpaceOnUse" gradientTransform="translate(111.689 57.1764) rotate(93.7926) scale(103.036 100.975)">
<stop offset="0.00887753" stop-color="#DEF9FA"/>
<stop offset="0.1723" stop-color="#BEF3F5"/>
<stop offset="0.4204" stop-color="#9DEDF0"/>
<stop offset="0.5512" stop-color="#7DE7EB"/>
<stop offset="0.7154" stop-color="#5CE1E6"/>
<stop offset="1" stop-color="#33BBCF"/>
</radialGradient>
<radialGradient id="paint14_radial_23042_202" cx="0" cy="0" r="1" gradientUnits="userSpaceOnUse" gradientTransform="translate(111.689 57.1764) rotate(93.7926) scale(103.036 100.975)">
<stop offset="0.00887753" stop-color="#DEF9FA"/>
<stop offset="0.1723" stop-color="#BEF3F5"/>
<stop offset="0.4204" stop-color="#9DEDF0"/>
<stop offset="0.5512" stop-color="#7DE7EB"/>
<stop offset="0.7154" stop-color="#5CE1E6"/>
<stop offset="1" stop-color="#33BBCF"/>
</radialGradient>
<radialGradient id="paint15_radial_23042_202" cx="0" cy="0" r="1" gradientUnits="userSpaceOnUse" gradientTransform="translate(111.689 57.1764) rotate(93.7926) scale(103.036 100.975)">
<stop offset="0.00887753" stop-color="#DEF9FA"/>
<stop offset="0.1723" stop-color="#BEF3F5"/>
<stop offset="0.4204" stop-color="#9DEDF0"/>
<stop offset="0.5512" stop-color="#7DE7EB"/>
<stop offset="0.7154" stop-color="#5CE1E6"/>
<stop offset="1" stop-color="#33BBCF"/>
</radialGradient>
<radialGradient id="paint16_radial_23042_202" cx="0" cy="0" r="1" gradientUnits="userSpaceOnUse" gradientTransform="translate(111.689 57.1764) rotate(93.7926) scale(103.036 100.975)">
<stop offset="0.00887753" stop-color="#DEF9FA"/>
<stop offset="0.1723" stop-color="#BEF3F5"/>
<stop offset="0.4204" stop-color="#9DEDF0"/>
<stop offset="0.5512" stop-color="#7DE7EB"/>
<stop offset="0.7154" stop-color="#5CE1E6"/>
<stop offset="1" stop-color="#33BBCF"/>
</radialGradient>
<radialGradient id="paint17_radial_23042_202" cx="0" cy="0" r="1" gradientUnits="userSpaceOnUse" gradientTransform="translate(111.689 57.1764) rotate(93.7926) scale(103.036 100.975)">
<stop offset="0.00887753" stop-color="#DEF9FA"/>
<stop offset="0.1723" stop-color="#BEF3F5"/>
<stop offset="0.4204" stop-color="#9DEDF0"/>
<stop offset="0.5512" stop-color="#7DE7EB"/>
<stop offset="0.7154" stop-color="#5CE1E6"/>
<stop offset="1" stop-color="#33BBCF"/>
</radialGradient>
<radialGradient id="paint18_radial_23042_202" cx="0" cy="0" r="1" gradientUnits="userSpaceOnUse" gradientTransform="translate(111.689 57.1764) rotate(93.7926) scale(103.036 100.975)">
<stop offset="0.00887753" stop-color="#DEF9FA"/>
<stop offset="0.1723" stop-color="#BEF3F5"/>
<stop offset="0.4204" stop-color="#9DEDF0"/>
<stop offset="0.5512" stop-color="#7DE7EB"/>
<stop offset="0.7154" stop-color="#5CE1E6"/>
<stop offset="1" stop-color="#33BBCF"/>
</radialGradient>
<radialGradient id="paint19_radial_23042_202" cx="0" cy="0" r="1" gradientUnits="userSpaceOnUse" gradientTransform="translate(111.689 57.1764) rotate(93.7926) scale(103.036 100.975)">
<stop offset="0.00887753" stop-color="#DEF9FA"/>
<stop offset="0.1723" stop-color="#BEF3F5"/>
<stop offset="0.4204" stop-color="#9DEDF0"/>
<stop offset="0.5512" stop-color="#7DE7EB"/>
<stop offset="0.7154" stop-color="#5CE1E6"/>
<stop offset="1" stop-color="#33BBCF"/>
</radialGradient>
<radialGradient id="paint20_radial_23042_202" cx="0" cy="0" r="1" gradientUnits="userSpaceOnUse" gradientTransform="translate(111.689 57.1764) rotate(93.7926) scale(103.036 100.975)">
<stop offset="0.00887753" stop-color="#DEF9FA"/>
<stop offset="0.1723" stop-color="#BEF3F5"/>
<stop offset="0.4204" stop-color="#9DEDF0"/>
<stop offset="0.5512" stop-color="#7DE7EB"/>
<stop offset="0.7154" stop-color="#5CE1E6"/>
<stop offset="1" stop-color="#33BBCF"/>
</radialGradient>
<radialGradient id="paint21_radial_23042_202" cx="0" cy="0" r="1" gradientUnits="userSpaceOnUse" gradientTransform="translate(111.689 57.1764) rotate(93.7926) scale(103.036 100.975)">
<stop offset="0.00887753" stop-color="#DEF9FA"/>
<stop offset="0.1723" stop-color="#BEF3F5"/>
<stop offset="0.4204" stop-color="#9DEDF0"/>
<stop offset="0.5512" stop-color="#7DE7EB"/>
<stop offset="0.7154" stop-color="#5CE1E6"/>
<stop offset="1" stop-color="#33BBCF"/>
</radialGradient>
</defs>
</svg>
